<?xml version="1.0" encoding="UTF-8"?>
<svg width="77px" height="82px" viewBox="0 0 77 82" version="1.1" xmlns="http://www.w3.org/2000/svg" xmlns:xlink="http://www.w3.org/1999/xlink">
    <title>shabbat</title>
    <g id="Screens" stroke="none" stroke-width="1" fill="none" fill-rule="evenodd" opacity="0.0931934175">
        <g id="Home" transform="translate(-381.000000, -3822.000000)" fill="#FFFFFF" fill-rule="nonzero">
            <g id="Group-14" transform="translate(375.000000, 3778.000000)">
                <g id="shabbat" transform="translate(6.000000, 44.000000)">
                    <path d="M14,12 L19.299105,12 C19.299105,11.423197 19.3649906,11.2354324 19.5091262,10.8239921 C19.7161446,10.2328246 20,9.42311145 20,7.99982899 C20,6.57654653 19.7163212,5.7668334 19.5091262,5.17566585 C19.3649906,4.76422556 19.299105,4.57646103 19.299105,3.99965799 C19.299105,3.42302595 19.3649906,3.23526143 19.5089496,2.82399213 C19.7161446,2.23282459 19.9998234,1.42328246 19.9998234,0 L14.7007183,0 C14.7007183,0.576632038 14.6348328,0.764396563 14.4908738,1.17566585 C14.2836788,1.7668334 14,2.57637553 14,3.99965799 C14,5.42294045 14.2836788,6.23265358 14.4908738,6.82382113 C14.6350094,7.23526143 14.700895,7.42302595 14.700895,7.99982899 C14.700895,8.57663204 14.6350094,8.76439656 14.4908738,9.17583686 C14.2836788,9.7670044 14,10.5767175 14,12 Z" id="Path"></path>
                    <path d="M23.9741205,58.9073813 L23.9741205,54 L11.0258795,54 L11.0258795,58.9073813 C11.0258795,65.5668628 7.82901226,71.9392485 2.47405007,75.9536965 L0,77.8084008 L0,82 L35,82 L35,77.8084008 L32.5259499,75.9536965 C27.1709877,71.9392485 23.9741205,65.5668628 23.9741205,58.9073813 L23.9741205,58.9073813 Z" id="Path"></path>
                    <polygon id="Path" points="11.057179 50 23.9429818 50 25.4697532 42.6911141 29 42.6911141 29 38.0053301 23.4752844 38.0053301 23.4752844 18 11.5248764 18 11.5248764 38.0053301 6 38.0053301 6 42.6911141 9.5304076 42.6911141"></polygon>
                    <path d="M57,12 L62.299105,12 C62.299105,11.423197 62.3649906,11.2354324 62.5091262,10.8239921 C62.7161446,10.2328246 63,9.42311145 63,7.99982899 C63,6.57654653 62.7163212,5.7668334 62.5091262,5.17566585 C62.3649906,4.76422556 62.299105,4.57646103 62.299105,3.99965799 C62.299105,3.42302595 62.3649906,3.23526143 62.5089496,2.82399213 C62.7161446,2.23282459 62.9998234,1.42328246 62.9998234,0 L57.7007183,0 C57.7007183,0.576632038 57.6348328,0.764396563 57.4908738,1.17566585 C57.2836788,1.7668334 57,2.57637553 57,3.99965799 C57,5.42294045 57.2836788,6.23265358 57.4908738,6.82382113 C57.6350094,7.23526143 57.700895,7.42302595 57.700895,7.99982899 C57.700895,8.57663204 57.6350094,8.76439656 57.4908738,9.17583686 C57.2838554,9.7670044 57,10.5767175 57,12 Z" id="Path"></path>
                    <path d="M74.5257855,75.9535334 C69.1709877,71.9392485 65.9741205,65.5666997 65.9741205,58.9072182 L65.9741205,54 L53.0258795,54 L53.0258795,58.9073813 C53.0258795,65.5668628 49.8290123,71.9392485 44.4740501,75.9536965 L42,77.8084008 L42,82 L77,82 L77,77.8084008 L74.5257855,75.9535334 Z" id="Path"></path>
                    <polygon id="Path" points="53.057179 50 65.942821 50 67.4697532 42.6911141 71 42.6911141 71 38.0053301 65.4751236 38.0053301 65.4751236 18 53.5248764 18 53.5248764 38.0053301 48 38.0053301 48 42.6911141 51.5302468 42.6911141"></polygon>
                </g>
            </g>
        </g>
    </g>
</svg>