<?xml version="1.0" encoding="UTF-8"?>
<svg width="25px" height="21px" viewBox="0 0 25 21" version="1.1" xmlns="http://www.w3.org/2000/svg" xmlns:xlink="http://www.w3.org/1999/xlink">
    <title>printing</title>
    <g id="Phase-1" stroke="none" stroke-width="1" fill="none" fill-rule="evenodd">
        <g id="Shabbat-receipt" transform="translate(-921.000000, -1179.000000)" fill="#891738" fill-rule="nonzero">
            <g id="Group-6" transform="translate(921.000000, 1178.000000)">
                <g id="printing" transform="translate(0.000000, 1.000000)">
                    <path d="M16.1562855,16 L8.8437639,16 C8.37780768,16 8,16.4477061 8,17 C8,17.5522939 8.37775825,18 8.8437639,18 L16.1562361,18 C16.6221923,18 17,17.5522939 17,17 C17,16.4477061 16.6222418,16 16.1562855,16 Z" id="Path"></path>
                    <path d="M23.0555664,3.42698942 L20.4040527,3.42698942 L20.4040527,0.833042351 C20.4040527,0.373006952 20.030957,0 19.5707031,0 L5.42929687,0 C4.9690918,0 4.59594727,0.372958142 4.59594727,0.833042351 L4.59594727,3.42698942 L1.94443359,3.42698942 C0.872265625,3.42698942 0,4.29898225 0,5.3707549 L0,13.7515505 C0,14.8233231 0.872265625,15.6952671 1.94443359,15.6952671 L4.59609375,15.6952671 L4.59609375,20.1669576 C4.59609375,20.626993 4.96918945,21 5.42944336,21 L19.5705566,21 C20.0307617,21 20.4039062,20.6270419 20.4039062,20.1669576 L20.4039062,15.6952671 L23.0555664,15.6952671 C24.1277344,15.6952671 25,14.8233231 25,13.7515505 L25,5.3707549 C25,4.29903106 24.1277344,3.42698942 23.0555664,3.42698942 Z M6.26259766,1.51789851 L18.7373535,1.51789851 L18.7373535,3.42698942 L6.26259766,3.42698942 L6.26259766,1.51789851 Z M18.7372559,19.3339153 L6.26279297,19.3339153 C6.26279297,19.1711335 6.26279297,12.7199973 6.26279297,12.5186556 L18.7372559,12.5186556 C18.7372559,12.7250736 18.7372559,19.1773812 18.7372559,19.3339153 Z M19.5707031,8.31849579 L17.4494629,8.31849579 C16.9892578,8.31849579 16.6161133,7.94553765 16.6161133,7.48545344 C16.6161133,7.02536923 16.989209,6.65241109 17.4494629,6.65241109 L19.5707031,6.65241109 C20.0309082,6.65241109 20.4040527,7.02536923 20.4040527,7.48545344 C20.4040527,7.94553765 20.030957,8.31849579 19.5707031,8.31849579 Z" id="Shape"></path>
                </g>
            </g>
        </g>
    </g>
</svg>